<svg id="Layer_1" data-name="Layer 1" xmlns="http://www.w3.org/2000/svg" viewBox="0 0 220.33 83.21"><title>Testshop_light</title><path d="M29.5,84.5c.13-6.62.09-13.28,0-19.94Z" transform="translate(-2.92 -2.51)" fill="#fff" stroke="#fff" stroke-miterlimit="10"/><line x1="34.58" y1="1.99" x2="34.58" y2="81.99" fill="#fff" stroke="#fff" stroke-miterlimit="10"/><path d="M36.56,4.91H36a1.39,1.39,0,0,1-.18.3c-.09.11-.31.11-.44.13a8.43,8.43,0,0,1-1.06.05l-.53,0a1,1,0,0,1-.35.32,1.91,1.91,0,0,1-.69.11,10.83,10.83,0,0,1-1.16,0l-.59,0h0a4.69,4.69,0,0,1-1.15.07H29.5V84.5h8V4.9C37.11,4.93,36.65,4.91,36.56,4.91Z" transform="translate(-2.92 -2.51)" fill="#fff" stroke="#fff" stroke-miterlimit="10"/><path d="M10.5,10.5s34.2-11.5,54-6c11.21,3.11,23.62,6.56,32,18,10.85,14.81,11.7,38.59,0,51-2.72,2.89-8,7.16-29,10a199.36,199.36,0,0,1-59-1" transform="translate(-2.92 -2.51)" fill="#fff" stroke="#fff" stroke-miterlimit="10"/><line x1="90.08" y1="15.99" x2="220.08" y2="15.99" fill="#fff" stroke="#fff" stroke-miterlimit="10"/><rect x="114.58" y="15.99" width="8" height="66" fill="#fff" stroke="#fff" stroke-miterlimit="10"/><line x1="81.08" y1="8.99" x2="220.08" y2="8.99" fill="#fff" stroke="#fff" stroke-miterlimit="10"/><line x1="219.58" y1="15.49" x2="219.58" y2="9.49" fill="#fff"/><path d="M223.25,18V12a.75.75,0,0,0-1.5,0v6a.75.75,0,0,0,1.5,0Z" transform="translate(-2.92 -2.51)" fill="#fff"/><line x1="87.58" y1="9.49" x2="87.58" y2="12.49" fill="#fff" stroke="#fff" stroke-miterlimit="10" stroke-width="0.5"/><line x1="92.58" y1="9.49" x2="92.58" y2="12.49" fill="#fff" stroke="#fff" stroke-miterlimit="10" stroke-width="0.5"/><line x1="97.58" y1="9.49" x2="97.58" y2="12.49" fill="#fff" stroke="#fff" stroke-miterlimit="10" stroke-width="0.5"/><line x1="102.58" y1="9.49" x2="102.58" y2="12.49" fill="#fff" stroke="#fff" stroke-miterlimit="10" stroke-width="0.5"/><line x1="107.58" y1="9.49" x2="107.58" y2="12.49" fill="#fff" stroke="#fff" stroke-miterlimit="10" stroke-width="0.5"/><line x1="112.58" y1="9.49" x2="112.58" y2="12.49" fill="#fff" stroke="#fff" stroke-miterlimit="10" stroke-width="0.5"/><line x1="117.58" y1="9.49" x2="117.58" y2="12.49" fill="#fff" stroke="#fff" stroke-miterlimit="10" stroke-width="0.5"/><line x1="122.58" y1="9.49" x2="122.58" y2="12.49" fill="#fff" stroke="#fff" stroke-miterlimit="10" stroke-width="0.5"/><line x1="127.58" y1="9.49" x2="127.58" y2="12.49" fill="#fff" stroke="#fff" stroke-miterlimit="10" stroke-width="0.5"/><line x1="132.58" y1="9.49" x2="132.58" y2="12.49" fill="#fff" stroke="#fff" stroke-miterlimit="10" stroke-width="0.5"/><line x1="137.58" y1="9.49" x2="137.58" y2="12.49" fill="#fff" stroke="#fff" stroke-miterlimit="10" stroke-width="0.5"/><line x1="142.58" y1="9.49" x2="142.58" y2="12.49" fill="#fff" stroke="#fff" stroke-miterlimit="10" stroke-width="0.5"/><line x1="147.58" y1="9.49" x2="147.58" y2="12.49" fill="#fff" stroke="#fff" stroke-miterlimit="10" stroke-width="0.5"/><line x1="152.58" y1="9.49" x2="152.58" y2="12.49" fill="#fff" stroke="#fff" stroke-miterlimit="10" stroke-width="0.5"/><line x1="157.58" y1="9.49" x2="157.58" y2="12.49" fill="#fff" stroke="#fff" stroke-miterlimit="10" stroke-width="0.5"/><line x1="162.58" y1="9.49" x2="162.58" y2="12.49" fill="#fff" stroke="#fff" stroke-miterlimit="10" stroke-width="0.5"/><line x1="167.58" y1="9.49" x2="167.58" y2="12.49" fill="#fff" stroke="#fff" stroke-miterlimit="10" stroke-width="0.5"/><line x1="172.58" y1="9.49" x2="172.58" y2="12.49" fill="#fff" stroke="#fff" stroke-miterlimit="10" stroke-width="0.5"/><line x1="177.58" y1="9.49" x2="177.58" y2="12.49" fill="#fff" stroke="#fff" stroke-miterlimit="10" stroke-width="0.5"/><line x1="182.58" y1="9.49" x2="182.58" y2="12.49" fill="#fff" stroke="#fff" stroke-miterlimit="10" stroke-width="0.5"/><line x1="187.58" y1="9.49" x2="187.58" y2="12.49" fill="#fff" stroke="#fff" stroke-miterlimit="10" stroke-width="0.5"/><line x1="192.58" y1="9.49" x2="192.58" y2="12.49" fill="#fff" stroke="#fff" stroke-miterlimit="10" stroke-width="0.5"/><line x1="197.58" y1="9.49" x2="197.58" y2="12.49" fill="#fff" stroke="#fff" stroke-miterlimit="10" stroke-width="0.5"/><line x1="202.58" y1="9.49" x2="202.58" y2="12.49" fill="#fff" stroke="#fff" stroke-miterlimit="10" stroke-width="0.5"/><line x1="207.58" y1="9.49" x2="207.58" y2="12.49" fill="#fff" stroke="#fff" stroke-miterlimit="10" stroke-width="0.5"/><line x1="212.58" y1="9.49" x2="212.58" y2="12.49" fill="#fff" stroke="#fff" stroke-miterlimit="10" stroke-width="0.5"/><line x1="217.58" y1="9.49" x2="217.58" y2="12.49" fill="#fff" stroke="#fff" stroke-miterlimit="10" stroke-width="0.5"/><rect x="128.58" y="17.99" width="44" height="64" rx="2" ry="2" fill="#83d3ff" stroke="#fff" stroke-miterlimit="10"/><rect x="138.58" y="27.99" width="25" height="9" rx="2" ry="2" fill="#ddd" stroke="#fff" stroke-miterlimit="10" stroke-width="0.75"/><line x1="141.08" y1="30.49" x2="161.08" y2="30.49" fill="none" stroke="#fff" stroke-miterlimit="10" stroke-width="0.25"/><line x1="141.08" y1="32.49" x2="161.08" y2="32.49" fill="none" stroke="#fff" stroke-miterlimit="10" stroke-width="0.25"/><line x1="141.08" y1="34.49" x2="161.08" y2="34.49" fill="none" stroke="#fff" stroke-miterlimit="10" stroke-width="0.25"/><path d="M10.5,10.5a4.12,4.12,0,0,0-3,5,3.3,3.3,0,0,0,4,2.4,2.64,2.64,0,0,0,1.92-3.2,2.11,2.11,0,0,0-2.56-1.54,1.69,1.69,0,0,0-1.23,2,1.35,1.35,0,0,0,1.64,1" transform="translate(-2.92 -2.51)" fill="#fff" stroke="#fff" stroke-miterlimit="10"/><path d="M8.5,82.5a6.08,6.08,0,0,1-5-7,4.87,4.87,0,0,1,5.6-4A3.89,3.89,0,0,1,12.3,76a3.11,3.11,0,0,1-3.58,2.56,2.49,2.49,0,0,1-2-2.87A2,2,0,0,1,9,74a1.59,1.59,0,0,1,1.31,1.84,1.28,1.28,0,0,1-1.47,1" transform="translate(-2.92 -2.51)" fill="#fff" stroke="#fff" stroke-miterlimit="10"/><polygon points="172.43 80.75 171.76 81.35 171.04 81.99 165.58 81.99 155.54 81.99 149.79 81.99 149.58 81.99 172.58 58.99 172.51 70.24 172.45 78.52 172.43 80.75" fill="#d3d3d3" stroke="#fff" stroke-miterlimit="10"/></svg>